<svg width="25" height="24" viewBox="0 0 25 24" fill="none" xmlns="http://www.w3.org/2000/svg">
<path d="M12.4809 19.4902L11.7825 19.217L12.4809 19.4902ZM3.94578 14.1378L3.21484 14.3058L3.94578 14.1378ZM3.9424 9.22642L3.21146 9.05841L3.9424 9.22642ZM20.4143 9.44741L21.1453 9.2794L20.4143 9.44741ZM20.4143 13.9021L19.6834 13.7341L20.4143 13.9021ZM9.48262 20.8233L9.77745 20.1337L9.77745 20.1337L9.48262 20.8233ZM9.85622 3.27141L10.0308 4.00081H10.0308L9.85622 3.27141ZM14.4497 3.27141L14.2751 4.00081L14.4497 3.27141ZM9.36446 20.7728L9.06962 21.4624H9.06962L9.36446 20.7728ZM14.8308 3.36264L15.0054 2.63325L14.8308 3.36264ZM20.3255 9.06088L19.5945 9.22889V9.22889L20.3255 9.06088ZM9.63317 3.32481L9.45857 2.59541V2.59541L9.63317 3.32481ZM8.86297 8.30793C8.44875 8.30793 8.11297 8.64372 8.11297 9.05793C8.11297 9.47215 8.44875 9.80793 8.86297 9.80793V8.30793ZM14.8946 9.80793C15.3088 9.80793 15.6446 9.47215 15.6446 9.05793C15.6446 8.64372 15.3088 8.30793 14.8946 8.30793V9.80793ZM8.86297 11.7641C8.44875 11.7641 8.11297 12.0999 8.11297 12.5141C8.11297 12.9283 8.44875 13.2641 8.86297 13.2641V11.7641ZM12.7013 13.2641C13.1155 13.2641 13.4513 12.9283 13.4513 12.5141C13.4513 12.0999 13.1155 11.7641 12.7013 11.7641V13.2641ZM9.80777 4.0542L10.0308 4.00081L9.68162 2.54202L9.45857 2.59541L9.80777 4.0542ZM14.2751 4.00081L14.6562 4.09204L15.0054 2.63325L14.6243 2.54202L14.2751 4.00081ZM9.77745 20.1337L9.65929 20.0832L9.06962 21.4624L9.18779 21.5129L9.77745 20.1337ZM19.5945 9.22889L19.6834 9.61542L21.1453 9.2794L21.0564 8.89287L19.5945 9.22889ZM14.3388 18.1768H13.2774V19.6768H14.3388V18.1768ZM13.2774 18.1768C12.5991 18.1768 12.0196 18.6108 11.7825 19.217L13.1794 19.7634C13.2073 19.6921 13.2587 19.6768 13.2774 19.6768V18.1768ZM4.67672 13.9698C4.33203 12.4702 4.32913 10.8919 4.67334 9.39443L3.21146 9.05841C2.81595 10.7791 2.8198 12.5871 3.21484 14.3058L4.67672 13.9698ZM19.6834 9.61542C19.9945 10.9687 19.9945 12.3808 19.6834 13.7341L21.1453 14.0701C21.5072 12.4957 21.5072 10.8538 21.1453 9.2794L19.6834 9.61542ZM9.18779 21.5129C10.7798 22.1936 12.5558 21.3576 13.1794 19.7634L11.7825 19.217C11.4433 20.084 10.5317 20.4561 9.77745 20.1337L9.18779 21.5129ZM10.0308 4.00081C11.4278 3.6664 12.8781 3.6664 14.2751 4.00081L14.6243 2.54202C12.9977 2.15266 11.3082 2.15266 9.68162 2.54202L10.0308 4.00081ZM9.65929 20.0832C7.18122 19.0237 5.31312 16.7384 4.67672 13.9698L3.21484 14.3058C3.9524 17.5145 6.12592 20.2039 9.06962 21.4624L9.65929 20.0832ZM19.6834 13.7341C19.0787 16.3647 16.8526 18.1768 14.3388 18.1768V19.6768C17.5985 19.6768 20.3948 17.3351 21.1453 14.0701L19.6834 13.7341ZM14.6562 4.09204C17.0766 4.67142 19.0016 6.64932 19.5945 9.22889L21.0564 8.89287C20.3432 5.78984 18.0108 3.35266 15.0054 2.63325L14.6562 4.09204ZM9.45857 2.59541C6.35638 3.338 3.94803 5.85397 3.21146 9.05841L4.67334 9.39443C5.28958 6.71346 7.29053 4.65676 9.80777 4.0542L9.45857 2.59541ZM8.86297 9.80793H14.8946V8.30793H8.86297V9.80793ZM8.86297 13.2641H12.7013V11.7641H8.86297V13.2641Z" fill="#ABABAB"/>
</svg>
